<svg width="100" height="120" xmlns="http://www.w3.org/2000/svg" data-name="Layer 1">

 <title>trash</title>
 <g>
  <title>Layer 1</title>
  <path fill="#f20d09" id="svg_1" fill-rule="evenodd" d="m11.17,37.16l83.48,0a8.4,8.4 0 0 1 2,0.16a5.93,5.93 0 0 1 2.88,1.56a5.43,5.43 0 0 1 1.64,3.34a7.65,7.65 0 0 1 -0.06,1.44l-7.11,73.65l0,0l0,0.13l0,0.28l0,0a7.06,7.06 0 0 1 -0.2,0.9l0,0l0,0.06l0,0a5.89,5.89 0 0 1 -5.47,4.07l-71.01,0a6.17,6.17 0 0 1 -1.25,-0.19a6.17,6.17 0 0 1 -1.16,-0.48l0,0a6.18,6.18 0 0 1 -3.08,-4.88l-7,-73.49a7.69,7.69 0 0 1 -0.06,-1.66a5.37,5.37 0 0 1 1.63,-3.29a6,6 0 0 1 3,-1.58a8.94,8.94 0 0 1 1.79,-0.13l-0.02,0.11zm-5.52,-28.36l31.47,0l0,-2.8l0,0a2.44,2.44 0 0 1 0,-0.27a6,6 0 0 1 1.76,-4l0,0a6,6 0 0 1 4.21,-1.73l19.37,0l0.3,0a6,6 0 0 1 5.7,6l0,0l0,0l0,2.8l32,0l0.39,0a4.7,4.7 0 0 1 4.31,4.43c0,0.18 0,0.32 0,0.5l0,9.86a2.59,2.59 0 0 1 -2.59,2.59l-99.98,0a2.59,2.59 0 0 1 -2.59,-2.56l0,-10.09l0,0a1.56,1.56 0 0 1 0,-0.31l0,0a4.72,4.72 0 0 1 3.88,-4.34a10.4,10.4 0 0 1 1.77,-0.08zm42.1,52.7a4.77,4.77 0 0 1 9.49,0l0,37a4.77,4.77 0 0 1 -9.49,0l0,-37zm23.73,-0.2a4.58,4.58 0 0 1 5,-4.06a4.47,4.47 0 0 1 4.51,4.46l-2,37a4.57,4.57 0 0 1 -5,4.06a4.47,4.47 0 0 1 -4.51,-4.46l2,-37zm-46.48,0.4a4.46,4.46 0 0 1 4.5,-4.46a4.58,4.58 0 0 1 5,4.06l2,37a4.47,4.47 0 0 1 -4.51,4.46a4.57,4.57 0 0 1 -5,-4.06l-2,-37l0.01,0z" class="cls-1"/>
 </g>
</svg>